# xmcd
#
# Track frame offsets:
#	150
#	15799
#	29646
#	51617
#	70902
#	92080
#	119627
#	144633
#	175824
#	204995
#	228142
#	244614
#	263750
#	273484
#	293441
#	313424
#
# Disc length: 4377
#
# Revision: 2
# Processed by: cddbd v1.5.1PL0 Copyright (c) Steve Scherf et al.
# Submitted via: CDex 1.30
# Normalized: r1:TDELIM( - )
#
DISCID=e7111710
DTITLE=Various Artist - Piêæ
DYEAR=2000
DGENRE=Blues
TTITLE0=RAMMSTEIN - RAMMSTEIN (EDIT)
TTITLE1=RAMMSTEIN - HEIRATE MICH (EDIT)
TTITLE2=Billy Joel - We Didn't Start The Fire
TTITLE3=Ich Troje - A wszystko to
TTITLE4=Iggy Pop - The Passenger
TTITLE5=Kazik - 12 Groszy
TTITLE6=Metallica - Enter Sandman
TTITLE7=Metallica - Fade To Black
TTITLE8=Metallica - Welcome Home (Sanitarium)
TTITLE9=Metallica - Whiskey In The Jar
TTITLE10=Myslovitz - Peggy Brown
TTITLE11=Nirvana - In Bloom
TTITLE12=Nosowska and Kazik - Zoil
TTITLE13=Rammstein - Engel
TTITLE14=Red Hot Chili Peppers - Under The Bridge
TTITLE15=The Doors - Alabama Song
EXTD=\nYEAR: 2000  ID3G:   0
EXTT0=
EXTT1=
EXTT2=
EXTT3=
EXTT4=
EXTT5=
EXTT6=
EXTT7=
EXTT8=
EXTT9=
EXTT10=
EXTT11=
EXTT12=
EXTT13=
EXTT14=
EXTT15=
PLAYORDER=
